<svg id="レイヤー_1" data-name="レイヤー 1" xmlns="http://www.w3.org/2000/svg" viewBox="0 0 1310.81 226.73"><defs><style>.cls-1{fill:#0d0015;}.cls-2{fill:#c9171e;}</style></defs><title>lead1</title><path class="cls-1" d="M139.3,103.59c-1.94,2.42-5.65,7.11-7.27,9.7-8.24,13.57-23.59,33.77-38.14,44.28l-20.2-16.16c12-7.6,23.11-19.88,26.67-26.67H20.52A196.06,196.06,0,0,0,0,116v-27a141.88,141.88,0,0,0,20.52,1.77H104.4c5.33,0,16-.64,19.39-1.61Zm-66.58,22c0,38,.81,72.88-44.76,98.25L5.17,205.24a62.67,62.67,0,0,0,18.42-9.86c17.94-13.57,22-27.31,22-53.65a92,92,0,0,0-1.29-16.16Z"/><path class="cls-1" d="M274.25,112.8a72.34,72.34,0,0,0-6.3,13.25c-4.37,13.42-13.09,34.75-28,53-15.68,19.23-35.23,34.1-65.61,46.54l-23.27-20.68c34.9-10.67,51.71-24.41,65.45-39.76,10.18-11.31,19.23-29.9,21.33-40.4H197.65a200.21,200.21,0,0,1-40.73,38.62l-22-16.32c28.6-17.61,41.69-37,50.26-50.58a84.92,84.92,0,0,0,8.56-19.23l28.61,9.37c-3.72,5.17-7.6,11.8-10,16h26a61,61,0,0,0,16-2.1Z"/><path class="cls-1" d="M336.31,143.34l-14.38,22c-9.86-6.78-26.18-17.45-37.66-23.59l14.22-21.66A439.8,439.8,0,0,1,336.31,143.34Zm9.7,36C373.8,164,397.07,141.24,409.84,118l15,26.83c-15.52,22.79-38.62,43-65.45,58.34-16.49,9.21-40.24,17.61-54.14,19.88l-14.71-25.86C308.84,194.09,327.74,189.24,346,179.38Zm15.51-73.2L347,127.83c-9.7-6.46-26.19-17-37.5-23.27L323.7,82.9C335,89.05,352.31,99.87,361.52,106.18Z"/><path class="cls-1" d="M539.93,214.45c0,2.59.17,9.21.17,12.28H515.53c0-1.45.16-3.87.16-6.3H456.55c-4.37,0-11.48.32-14.23.49V197.16c2.75.32,8.41.65,14.39.65h59v-17.3H468c-6.46,0-15.35,0-19.55.33v-23c4.84.32,13.09.48,19.55.48h47.67V143H465.92c-6.95,0-17.45.32-22,.65V120.24c4.85.48,15,.8,22,.8h60.44c3.88,0,11-.16,13.74-.32-.17,2.42-.17,8.89-.17,12.44Z"/><path class="cls-1" d="M625.91,175.18c29.09-16.81,50.91-41.85,61.74-64.64l15.19,27.63c-12.93,23-35.88,45.42-62.87,61.25-16.48,9.7-37.49,18.1-57.85,21.33L565.47,194.9C589.23,191.67,610.07,184.39,625.91,175.18Zm5.5-52.84-20,20.52c-8.57-9.37-28.93-27.15-40.57-35.39l18.59-19.88C600.54,95.19,621.71,112,631.41,122.34Z"/><path class="cls-1" d="M831.8,102.62a90.23,90.23,0,0,0-6.62,11.8,250.42,250.42,0,0,1-24.41,42.66c15.68,13.58,35.07,34.1,44,45.09l-22.46,19.55c-10.35-14.7-24.08-30.22-38.63-44.28-17,17.62-38.14,33.94-59.31,44.12L704,200.39c26.18-9.53,51.71-29.41,66.1-45.41,10.5-12,19.23-26.18,22.62-36.52H742.43c-7.27,0-16.16,1-20.68,1.29V92a191.33,191.33,0,0,0,20.68,1.3h54c8.08,0,15.67-1.13,19.39-2.43Z"/><path class="cls-1" d="M996.16,112.8a72.34,72.34,0,0,0-6.3,13.25c-4.37,13.42-13.09,34.75-28,53-15.68,19.23-35.23,34.1-65.61,46.54L873,204.92c34.91-10.67,51.72-24.41,65.45-39.76,10.19-11.31,19.24-29.9,21.34-40.4H919.56a200.47,200.47,0,0,1-40.73,38.62l-22-16.32c28.61-17.61,41.7-37,50.26-50.58a84.49,84.49,0,0,0,8.57-19.23l28.6,9.37c-3.71,5.17-7.59,11.8-10,16h26a61,61,0,0,0,16-2.1Z"/><path class="cls-1" d="M1009.09,135.43c6.46.48,20,1.13,28,1.13h85.81c7.27,0,15.19-.81,19.88-1.13v30.86c-4.2-.16-13.25-1-19.88-1h-85.81c-9.21,0-21.34.49-28,1Z"/><path class="cls-1" d="M1155.83,206.05c14.71-10.18,23-25.37,27.15-38.14,4.52-13.25,4.69-43,4.69-63.19a62.69,62.69,0,0,0-1.78-16.64h28.76a127.9,127.9,0,0,0-1.29,16.32c0,19.88-.48,53.65-4.69,70a97.12,97.12,0,0,1-28.92,47.52Zm75.31,3.23a61.66,61.66,0,0,0,1.45-13.41V103.11a84.8,84.8,0,0,0-1.45-15h29.09a97.6,97.6,0,0,0-1.3,15.19v79.51c12.12-5,25.86-16.65,35.88-30.87l15,21.66c-13.09,16.64-36.68,34.58-54.62,43.79-3.72,1.94-5.5,3.72-7.76,5.33Z"/><path class="cls-2" d="M69.8,16.87a53,53,0,0,0-5,5.91,125,125,0,0,1-21,23.61C33.69,55,22.57,61.58,7,67.13L0,57.91C17.28,53.16,27,47,35.61,40.2c6.37-5,13.41-13.32,16-18H33.73A151.47,151.47,0,0,1,9.33,39.41L2.18,32.14A111.19,111.19,0,0,0,32.78,9.6,60.13,60.13,0,0,0,39.71,1L50.94,5.21c-2.5,2.3-5.3,5.26-7.06,7.13H55.47a30.93,30.93,0,0,0,7.47-.94Z"/><path class="cls-2" d="M127.69,15.29a71,71,0,0,0,8.45-.65L132,26.09c-2.56-.07-5.49-.15-7.51-.15h-8c-3.53,10.3-7.17,21.1-10.7,31.18C104,62.23,100,65.25,93.88,65.25c-4.75,0-8.59-.14-12.87-.43l3.1-11.3a62,62,0,0,0,9,.79c1.66,0,2.72-.93,3.48-3,1.55-4.25,3.54-9.72,5.67-15.77-9.47,8.21-24,17.35-36.56,22.9L61,49.34c15.94-6.4,30.62-15.48,39.26-23.4H83.06c-2.74,0-6.39.15-9.11.29l4.2-11.52a71.91,71.91,0,0,0,8.5.58h22.47l1.3-4.18c.7-2.3,1.55-5.25,2.14-8.06h12.32a64.82,64.82,0,0,0-3.37,8.06l-1.45,4.18Z"/><path class="cls-2" d="M164.56,5.57c-.8,1.8-1.41,3.1-2.35,5.69L153.3,35.74c-.66,1.8-1.61,4.82-2.15,6.69h-13c.59-1.44,2-4.53,2.82-6.77l8.88-24.4c.5-1.37,1.35-3.89,1.78-5.69Zm33.29-.65c-.93,2.16-2,4.61-3.12,7.78L189,28.39c-5.27,14.47-11.27,21.67-18.84,27.43a70.33,70.33,0,0,1-21.41,10.37l-5.64-9.65c8.09-1.65,15-4.32,20.91-8.78,6.69-5.11,9.56-10.22,13.17-20.16l5.43-14.9A65,65,0,0,0,185,4.92Z"/><path class="cls-2" d="M255.1,24.29a56.52,56.52,0,0,0,7.31-.5l-4.11,11.3c-1.9-.15-4.89-.22-7.05-.22H235.12a68.38,68.38,0,0,1-11.23,17.78,57.54,57.54,0,0,1-19.8,14.26l-7.56-7.34a49.51,49.51,0,0,0,16.37-9.94,45.73,45.73,0,0,0,10-14.76h-18.8c-2.09,0-5.31.15-7.38.29l4.14-11.37a58.86,58.86,0,0,0,7.09.5Zm-34.82-8.21c-2.52,0-6,.15-8.46.29l4.06-11.16a60.48,60.48,0,0,0,8.15.58h28.8a70,70,0,0,0,8.56-.58l-4.06,11.16c-2.61-.14-5.51-.29-8.25-.29Z"/><path class="cls-2" d="M316.59,23.5a148.3,148.3,0,0,1-20.82,12.88L287.3,59.64c-1,2.73-2.49,7-2.56,8.64h-13c.8-1.59,2.59-5.91,3.58-8.64l6.08-16.7a153.08,153.08,0,0,1-21.63,7.19l-2.19-10a136.53,136.53,0,0,0,29.24-9.72c9-4.32,18.66-10.3,24-15Z"/><path class="cls-2" d="M340.37,54.89a63,63,0,0,0,7.46-1.3c9.88-2.23,18.24-8.57,21.64-17.93,3.36-9.21,1.28-15.76-6.23-17.71a214.82,214.82,0,0,1-10.93,18.58C342.87,50.78,333,60.36,324.55,60.36c-8.78,0-12.07-9.58-7.64-21.74C323.07,21.7,342.93,7.3,362,7.3c18.15,0,25.11,12.53,19.21,28.72-5.45,15-18.31,26-38,29.09Zm11.06-36.72c-11.63,2.88-20.38,12.46-22.87,19.29-2.25,6.2-1.27,9.44,1.18,9.44,2.88,0,6.61-4.32,12.15-12.6A151.67,151.67,0,0,0,351.43,18.17Z"/><path class="cls-2" d="M442.86,57.77c-1.65,4.53-3.51,7.27-7.08,8.78s-7.4,1.73-12.15,1.73a28.14,28.14,0,0,0,.62-5.47H406.32l-1.13,3.09h-9l7.21-19.8h27.72l-4.53,12.46a39.81,39.81,0,0,0,4.17,0c.94,0,1.38-.22,1.67-1l5.08-14H399.35l-9,24.84H380.08L392.24,35h58.9ZM463.93,5.43l-3.23,8.85H397.12l3.23-8.85h25.92l2-5.62h10.8l-2,5.62Zm-21.8,27.43h-40l6-16.49h40ZM419.49,52.94h-9.58l-1.1,3h9.57Zm15.6-29.8H415.57L414.52,26H434Z"/><path class="cls-2" d="M482.08,19.25c-1.71,4.68-3.41,9.36-4.71,14.11-2.54,9.36-3.48,15.91.62,15.91,3.31,0,9.08-8.93,11.84-13.75l4.84,10.65c-9.55,12.6-15.72,17.07-22,17.07-8.43,0-12.79-7.2-7.7-26.71,1.74-6.77,4.63-14.9,6.28-19.44a46.09,46.09,0,0,0,2.15-7.7l13.2.14A86.63,86.63,0,0,0,482.08,19.25Zm38.6,28.87-13,4.39c2.9-10.73,6.07-28.94,1-38L521,10.9C525,19.11,523.85,37.82,520.68,48.12Z"/></svg>