<svg id="レイヤー_1" data-name="レイヤー 1" xmlns="http://www.w3.org/2000/svg" viewBox="0 0 1310.81 226.73"><defs><style>.cls-1{fill:#0d0015;}.cls-2{fill:#c9171e;}</style></defs><title>lead2</title><path class="cls-1" d="M564.29,206.79c10-8.4,17.13-21.49,20.52-35.71L606,178c-4.2,15.84-10.34,31.51-22,41.86Zm81.29-56.07a157.18,157.18,0,0,0-17.13-10.67c-9.38,10.83-23.44,20.2-44.93,27.31a64,64,0,0,0-13.9-20c17.13-5,28.28-11.31,35.72-18.58-7-3.07-14.06-5.82-20.37-7.92l13.09-17.13c5.82,1.78,12.29,4,18.91,6.63a64.08,64.08,0,0,0,2.59-9h-41.7V79.61H704.72s-.16,6.3-.48,9c-1.94,40.73-4.2,57.86-9,64-3.88,5-7.92,6.78-13.09,7.75-4.53,1-11.48,1-19.23.81-.33-6.62-2.75-16-6.3-22a98,98,0,0,0,12.92.49,5.53,5.53,0,0,0,5.34-2.26c2.26-2.75,3.87-12.61,5.33-36.2H645.9a107.12,107.12,0,0,1-5.5,19.07c7.6,3.71,14.55,7.43,19.56,11Zm52.52,67.87c-2.1-6.46-6.63-14.7-12-22.78-2.59,22.46-8.89,28.28-26.67,28.28H635.88c-23.27,0-28.77-6.47-28.77-26V172.21h23.28v25.54c0,5,1.13,5.65,8.4,5.65h18.58c6.14,0,7.11-2.1,8.08-16.32,4.53,3.39,14.06,6.79,20.37,8.08a208.32,208.32,0,0,0-14.22-18.42l19.23-10.51c11.31,12,23.59,28.28,28.44,40.56Zm-63.35-69.17c10,5.34,23,14.07,29.09,20.85l-17,15.52c-5.33-6.79-17.78-16.33-28-22.3Z"/><path class="cls-1" d="M820.27,140.7c-4.84,3.72-10,7.27-15.19,10.66h54.3v74.51H834.82V222h-50.1v4.52H761.29V175.12c-7.27,3.23-14.87,6.14-22.3,8.89a138.62,138.62,0,0,0-13.9-19.39A273.6,273.6,0,0,0,781,140.7H730.91V120.17H781V108.86H744.8V88.66H781V72.82h23.27V88.66H836.6v8.41a170,170,0,0,0,15.67-20l20.2,10.34a216,216,0,0,1-28.12,32.8h32.81V140.7Zm14.55,29.73h-50.1v7.28h50.1Zm0,32v-7.27h-50.1v7.27Zm-30.55-82.26h7.44c4.68-3.55,9-7.43,13.25-11.31H804.27Z"/><path class="cls-1" d="M945.36,141.34l-14.39,22c-9.85-6.78-26.18-17.45-37.65-23.59l14.22-21.66A439.8,439.8,0,0,1,945.36,141.34Zm9.69,36c27.8-15.35,51.07-38.14,63.84-61.41l15,26.83c-15.52,22.79-38.63,43-65.45,58.34C952,210.35,928.23,218.75,914.33,221l-14.71-25.86C917.88,192.09,936.79,187.24,955.05,177.38Zm15.52-73.2L956,125.83c-9.69-6.46-26.18-17-37.49-23.27L932.75,80.9C944.06,87,961.36,97.87,970.57,104.18Z"/><path class="cls-1" d="M1149,212.45c0,2.59.16,9.21.16,12.28h-24.56c0-1.45.16-3.87.16-6.3h-59.15c-4.36,0-11.47.32-14.22.49V195.16c2.75.32,8.41.65,14.39.65h59v-17.3h-47.67c-6.47,0-15.35,0-19.56.33v-23c4.85.32,13.09.48,19.56.48h47.67V141H1075c-7,0-17.46.32-22,.65V118.24c4.85.48,15,.8,22,.8h60.44c3.88,0,11-.16,13.73-.32-.16,2.42-.16,8.89-.16,12.44Z"/><path class="cls-1" d="M1176.94,133.43c6.47.48,20,1.13,28,1.13h85.81c7.28,0,15.19-.81,19.88-1.13v30.86c-4.2-.16-13.25-1-19.88-1H1204.9c-9.21,0-21.33.49-28,1Z"/><path class="cls-2" d="M656,9,634.42,68.21H623.26l1.23-3.39h-32l-1.23,3.39H580.63L602.17,9h18.58c1.75-3,3.55-6.41,4.84-9.15l12.34,1.3c-2,2.74-4.15,5.47-6,7.85ZM628,55.17l2.07-5.68H598L596,55.17Zm-24.42-21-2,5.62h32l2-5.62ZM609.11,19l-2,5.55h32l2-5.55Z"/><path class="cls-2" d="M693.84,3.27c-3.4,4.39-7.24,9-11.29,13.39L663.82,68.13h-9.94l13.29-36.5c-2.32,2-4.63,3.82-6.89,5.47a49.33,49.33,0,0,0-1.37-10.87A125,125,0,0,0,685.27.1ZM680.23,44.59h38.31L710,68.06H699.41l.84-2.3H682.54l-.92,2.52h-10Zm5.2-10.51h35.35l-2.93,8.06H682.49ZM733.6,12.91l-3,8.36H684.48l3-8.36ZM687.33,52.58l-1.83,5h17.71l1.84-5ZM722,31.7H686.29l2.94-8.06h35.71Zm6.41-21.16H695.29l2.94-8.06h33.12Z"/><path class="cls-2" d="M756.46,50.78c.8-1.8,1.91-4.46,3-7.12-5.41,2.59-8.19,4.89-9.24,7.77s.68,4.25,7.38,4.25a119.68,119.68,0,0,0,21.55-2.23l-4.42,11.16a206.69,206.69,0,0,1-21,1.22c-11.74,0-19.06-3-15.6-12.53C741.43,44,752.1,38,761.54,33.86a3.77,3.77,0,0,0-3.36-1.43c-3.68,0-8.93,2.37-12.25,4.75-3,2.23-5.93,4.82-9.56,8.06l-6.7-6.91c9-6,16.11-11.81,22-18.36-3,0-8.09-.14-11.7-.5l3.64-10a87,87,0,0,0,12.51.86h2.8a56.72,56.72,0,0,0,4.06-7.77l11,.93c-.87,1.59-2.19,3.82-4,6.48a183,183,0,0,0,20-2l-3.71,10c-7,.87-16,1.52-23.7,1.8a67.33,67.33,0,0,1-4.57,5,38.48,38.48,0,0,1,7.32-.72c4.18,0,7,1.73,7.67,5,3.38-1.37,6-2.3,9-3.45,3.6-1.37,7-2.74,10.59-4.18l.64,9.94c-2.79.72-7.85,2.37-11,3.45s-7.06,2.38-11.41,4c-1.34,3.89-2.95,8.72-4,11.88Z"/><path class="cls-2" d="M820.26,39.48c-2.22.58-4.52,1.15-6.82,1.73l-5.76,15.84c-1.65,4.53-3.32,7.12-6.37,8.78s-6.56,2-11.22,1.94a33.75,33.75,0,0,0,.95-9.72c2.25.15,4.63.15,5.49.15s1.26-.29,1.6-1.23l4.79-13.17-7.18,1.73,1.48-10c2.71-.5,5.89-1.15,9.4-1.87l4-10.94h-7.49l3.49-9.58h7.48L818.85,0h9.58l-4.77,13.1H829l-3.49,9.58h-5.32L817,31.35l5.34-1.23Zm39.62-8.35-1.6,4.39h7.42L862.27,45h-7.42l-4.69,12.89c-1.78,4.89-3.56,7.41-7.21,8.93s-7.59,1.65-12.77,1.65a35.51,35.51,0,0,0,.68-9.79,70.59,70.59,0,0,0,7.66.14c1,0,1.44-.21,1.78-1.15L844.91,45H831a38.54,38.54,0,0,1,3.29,11.52l-10.86,5.11c.11-3.45-1.27-8.78-2.73-12.67l8.64-4h-10.3l3.44-9.43h25.85l1.59-4.39H823.52l3.46-9.5h17.21l1.7-4.68H831.42l3.43-9.43h14.47L852,.24h9.94l-2.65,7.28h14.11L869.94,17H855.83l-1.71,4.68h17.21l-3.46,9.5Z"/><path class="cls-2" d="M881.24,28c5.27-1.44,19-5.47,27.77-5.47,12,0,17.09,7.06,12.92,18.5-4.51,12.39-18.39,22.25-43.5,23.76l-.73-10.65c16.86-.44,29.64-4.68,32.79-13.32,1.78-4.9-.61-8.21-6.23-8.21-8,0-23.4,5.54-31.49,8.57L872.47,30C874.68,29.62,878.91,28.68,881.24,28Z"/><path class="cls-2" d="M941.28,10.83c6.91-.58,18-1.44,31.48-2.6,7.34-.57,15.92-1,21.18-1.22L990,18.1c-3.7.07-9.75.07-14,.86-8.33,1.73-18,10.08-21.06,18.5-3.83,10.52,4.54,14.62,16.6,15.34l-8.41,12c-15.47-1.22-25.93-9.86-20.41-25C946.27,30,954.2,22.42,959.28,19c-6.36.65-19.41,2.09-28.66,4l3.19-11.73C936.72,11.11,939.86,11,941.28,10.83Z"/><path class="cls-2" d="M1016.06,30.91a68,68,0,0,1,13.08-1.51c11.23,0,18.47,5.83,14.64,16.34-3,8.35-9.34,15.19-22.71,18.29A75.32,75.32,0,0,1,1011,65.25l.1-11.16a57.68,57.68,0,0,0,9.11-.5c5.81-.94,10.79-3.53,12.39-7.92,1.52-4.17-1.14-6.77-7-6.77a57.58,57.58,0,0,0-12.74,1.59c-1.82,5.4-3.49,10.36-4.27,12.53-3.67,10.07-8.16,12.52-13.28,12.52-7.7,0-15.57-6.26-12.59-14.47,2.34-6.41,11.9-13.1,22.32-17,.61-1.87,1.29-3.74,1.94-5.54l1.5-4.11c-1.18.08-2.19.08-3.13.08a97.34,97.34,0,0,1-10.23-.36l3.55-10.37a79.83,79.83,0,0,0,10.12.5c1.08,0,2.23,0,3.41-.07l1.65-4.53c.55-1.52,1.75-5.62,2-7h11.8c-.71,1.37-2.41,5-3.23,6.91l-1.55,3.67a108.81,108.81,0,0,0,13.2-2.44l-3.69,10.72c-4.27.87-9,1.52-13.55,2-.62,1.51-1.2,3.1-1.75,4.61Zm-16.86,20c.49-1.37,1.29-3.75,2.29-6.7-4.26,2-7.26,4.32-8,6.41-.6,1.66,1.25,3.09,2.62,3.09C997.17,53.73,998.28,53.45,999.2,50.93Zm44.94-40.61c4.72,2.67,11.64,7.2,14.63,9.87L1050.46,29c-2.41-2.66-10.4-8.21-14.06-10.22Z"/><path class="cls-2" d="M1068.86,50.42c1,4.47,5.28,6.27,12.23,6.55a341.49,341.49,0,0,0,35.86-.79,80.09,80.09,0,0,0-7.19,10.66c-9.33.5-23.71.65-32.55.21-8.44-.36-13.47-2.16-16.21-7.7-3.9,2.59-7.86,5.18-12.88,8.28l-1.06-10.94c3.56-1.66,7.61-3.67,11.42-5.84l4.87-13.39h-7.42l3.51-9.64h17.65Zm4.65-31.17c-.89-3.31-4.17-8.14-7.09-11.38l10-6.26c3,2.95,6.66,7.42,7.91,10.73Zm32.64,16.56c1.22,5.54,5.27,9.65,12.61,11.45A66.43,66.43,0,0,0,1109,56c-6.74-2.45-10.37-6.91-11.84-13.18-4.88,4.9-11.76,9.58-21.5,13.18a22.73,22.73,0,0,0-4.23-7.56c11.24-3.38,17.19-8.06,20.59-12.67h-15.69l3.38-9.29h16.85l1.91-5.25h-14.26l3.33-9.15h6A35,35,0,0,0,1092,3.63L1102.18,0a26.54,26.54,0,0,1,2.24,10.65l-3.91,1.44h14L1111.66,11a98.25,98.25,0,0,0,9.65-11.09l9.55,3.24c-3.36,3.32-6.75,6.48-9.61,9h7.49l-3.33,9.15H1109l-1.91,5.25h19l-3.38,9.29Z"/><path class="cls-2" d="M1157.56,3.34c-1.63,2.52-5.27,8.57-6.94,12,5.3-4.46,12.44-8.85,19.86-8.85,10.22,0,14.87,9.79,9,25.91-7.42,20.38-23.4,30.46-44.3,34.06l-2.91-10c17-2.52,29.24-7.13,35.4-24,3.93-10.8,2.16-15.84-2.88-15.84-8.13,0-19.61,12.53-23,21.89a66.77,66.77,0,0,0-2.06,6.84L1128.8,46a94,94,0,0,1,3.49-12.17A223.85,223.85,0,0,1,1142.45,11c1.38-2.81,2.78-6,3.56-8.2Z"/><path class="cls-2" d="M1251.18,21.12c-4.17-.21-10.82-.36-19.79-.43-1.16,3.38-2.47,7-3.55,9.94.83,2.88.48,6.4-.94,10.29-3.32,9.14-13.74,21.53-33.35,26.35l-5.79-9.22c6.64-1.22,13.24-2.95,18.63-6.26a8.6,8.6,0,0,1-1.33.07c-5.25,0-11-4.46-7.69-13.68,3.14-8.63,12-13.89,20.25-13.89a14.14,14.14,0,0,1,1.77.07l1.24-3.6c-10.78.15-21.45.58-30.32,1l3.49-10.37c8.25.07,21-.21,30.23-.36l.21-.79c.78-2.73,1.59-5.76,1.8-7.13h12.46c-.71,1.37-2.6,5.76-3.14,7.06l-.29.79c6.62,0,16.25-.14,20-.07Zm-40.42,21.24c2.3,0,5.28-1.66,6.48-7.13a3.1,3.1,0,0,0-3.21-1.87,6.79,6.79,0,0,0-6.21,4.61A3,3,0,0,0,1210.76,42.36Z"/><path class="cls-2" d="M1310,12.48c-2.3,1.15-4.49,2.23-6.73,3.46-5,2.73-13.16,7.85-18.15,10.87a26.35,26.35,0,0,1,5.13-.43c12.24,0,19,7.84,15.13,18.57-4.06,11.16-15.67,20.88-34.1,20.88-10.08,0-16.73-4.68-13.87-12.53,2.28-6.26,10.16-12.09,18.22-12.09,8.72,0,12.5,5,11.26,11.81a15.17,15.17,0,0,0,7.16-8.21c2.23-6.12-2.64-9.94-10.49-9.94-10.44,0-20.21,6.27-30.09,14.62l-4.89-8.14c5.92-3.6,16.77-10.65,22.27-14.11,5.17-3.31,13.65-8.42,18.24-11.52-3.63.07-11.08.36-15,.65-2.21.14-4.81.36-6.64.65l3.7-11.16a55.55,55.55,0,0,0,7.11.43c3.82,0,18.15-.22,22.53-.57a44.17,44.17,0,0,0,6.66-.87ZM1275.89,55.9c1.08-4-.17-6.48-3.19-6.48a5,5,0,0,0-4.69,2.8c-.82,2.24,1,3.82,4.58,3.82C1273.74,56,1274.85,56,1275.89,55.9Z"/></svg>