<svg id="レイヤー_1" data-name="レイヤー 1" xmlns="http://www.w3.org/2000/svg" viewBox="0 0 2444.85 509.9"><defs><style>.cls-1{fill:#fbfaf5;}.cls-2{fill:#c9171e;}</style></defs><title>logo-white</title><path class="cls-1" d="M402.77,0c-10.51,39-43.84,75.45-73.08,101.8-22.42,15.7-58.73,31.93-83.39,43.51-45.14,24.09-80,88.85-66.48,139.55,8.16-34.13,33.39-62.9,61.18-83,66.89,80.44,47.22,223.6-50.83,270.05,138.23-24.57,184-195.35,76.35-286.37,4.63-5.95,14.82-7.15,22.94-11.08a129.13,129.13,0,0,0,28-18.93c20.39-18.3,43-42.51,54.49-67.78C386.74,63.8,400.67,28.23,402.77,0Z"/><path class="cls-1" d="M268.61,99.22C219.32,132,158.92,179,134.12,234.35c-18.52,35.35-29.06,98.15,9.41,118,7.31,3.77,12.7,4.33,25.81,1.85,51.58-4.57,55.14,83.29-5.73,113.41a46.18,46.18,0,0,1-9.31,3.81c4.91-.7,13.27-2,16.21-3,12-4,26.53-13.33,37.44-19.46,40.18-35.63,78.35-119,27.2-159.81-14.12-7.45-23.31,1.74-42.26,11.72-6.9,2.92-16-2.1-19.45-7.53C141.16,217.74,219.17,147.17,268.61,99.22Z"/><path class="cls-1" d="M84.54,256.1c-30.36,39.19-44.27,79.24-28.66,128,3.7-20.31,10.32-44.32,21.76-61.71,2.22-4.06,7.72-13.74,12.34-15.48C85,291.71,85.2,271.9,84.54,256.1Z"/><path class="cls-1" d="M216.32,122.23c-69.6,48.36-111.35,112-115.46,197.88-1.53-9.76-4.64-32.42-5-42-1.37-14.52-.68-32.3-.83-46.86-13,11.67-26.72,27.24-36,42C-6.9,386.18,99.76,463.38,99.76,463.38s-2-1.14-12.71-5.63C4.75,416.58-25.25,304.33,23.46,226.82,48.1,187,91.44,163.44,136.62,148,161.14,139.56,193,133.62,216.32,122.23Z"/><path class="cls-2" d="M539.51,463.09l-59.82.29q-9,0-10.11-2.89c0-1.73,1.44-3.76,4.33-6.07l4.63-2.89q3.46-1.72,4.33-4l1.16-6.36-11.27-42.19L460,422.64q-3.46,6.06-7.22,6.06-3.46,0-6.36-7.22l-1.15-3.76L432.3,388l-6.64,20.52Q415.84,433,404.57,447.2,387.8,468,366.42,468q-17.06,0-24.85-12.42-4.33-7.51-4.33-19.36,1.72-13.87,10.4-19.94a21.52,21.52,0,0,1,12.43-3.76l4,.58c1.35.2,2.5,1.26,3.47,3.18l1.44,4q2.31,4.33,5.78,4.34l2.89.58q7.8,0,15.32-8.38,11.55-12.72,22.25-43.92c0-.19-.49-.39-1.45-.58a9.51,9.51,0,0,1-1.44-.58,16.11,16.11,0,0,0-3.18-.87,14.09,14.09,0,0,1-4.34-.57c-2.89,0-5.1.57-6.64,1.73-1.55,1.54-2.31,4.43-2.31,8.67q0,6.64-3.76,8.67l-2,.86q-10.41,0-14.45-6.64-2.6-4.33-2.6-12.14,0-12.14,7.22-18.78,7.51-6.65,19.07-6.65a31.22,31.22,0,0,1,6.94.58,40.46,40.46,0,0,1,15.6,6.07l8.67-28.9q3.46-9.53,3.47-16.18a22.68,22.68,0,0,0-5.49-15.31L423.06,288a29.82,29.82,0,0,1-6.65-7.22,27.28,27.28,0,0,1-2-6.07c1-1.73,3.47-2.6,7.51-2.6l5.78.58,9.83,3.47a87,87,0,0,0,24,3.46,67.24,67.24,0,0,0,7.22-.29q4.62-.57,7.52-1.15A71.08,71.08,0,0,0,491,273l3.47-.58,2.89-.29q4.33,0,5.2,2.31a10.35,10.35,0,0,1-1.16,5.2,41.54,41.54,0,0,1-4.91,6.94l-4.62,4.33a24.22,24.22,0,0,0-4.91,14.74l.29,5.49a15.22,15.22,0,0,0,1.44,5.49l9.25,30.05,17.62,56.93,9.54,32.94a33.9,33.9,0,0,0,4,7.22q5.21,7.51,13.3,8.67l2.31,2.31c1.73,1.73,2.6,3.28,2.6,4.62Q547.31,461.66,539.51,463.09ZM450.8,323.81l-12.14,44.5,5.78,8.09a124.16,124.16,0,0,1,10.69,22.54l11.56-20.22Z"/><path class="cls-1" d="M639.13,435.35Q628.74,466,595.21,466q-22.53,0-37-15.31-9.26-10.12-14.45-28.61l-2.6-15.32v-6.06q0-32.08,15.6-49.41,15.88-17.06,39-17l4.62.29a7,7,0,0,1,4.05,1.44l4.62,1.73,6.65.58a24.42,24.42,0,0,0,10.4-2l5.49,6.36a38.45,38.45,0,0,1,5.49,20.51l-1.73,8.38q-6.66,18.79-25.14,18.78-11,0-16.47-4.62-2.61-1.74-6.65-10.4,0-6.93,2-8.09a17.22,17.22,0,0,1,8.67,2.31q5.49,0,7.8-3.18c.77-1,1.26-2.79,1.45-5.49a8.35,8.35,0,0,0-4.91-7.8l-4.92-1.73q-10.4,0-16.75,6.35-10.69,10.69-10.7,35.83a109.52,109.52,0,0,0,4.34,19.65q8.08,20.23,27.45,22.83a34.31,34.31,0,0,0,24-9.25l8.09-10.11q2.9-2.9,5.2-3.18a4.29,4.29,0,0,1,2,1.16l.57,2.89.58,4Q641.15,431,639.13,435.35Z"/><path class="cls-1" d="M718.07,441.13a4.34,4.34,0,0,1-1.15,3.18q-2.61,13-13.87,18.2A37.22,37.22,0,0,1,686.29,466q-17.92,0-25.43-13.87-1.74-3.47-3.76-14.16v-83.8H641.79V341.44q17.34-3.46,26.87-15.6a44.49,44.49,0,0,0,9.54-28.32l2-4.62q2.88-4.33,6.07-4.63l2.6.87a15.91,15.91,0,0,1,.86,2,17,17,0,0,1,.29,4l.58,42.18h20.52v16.76H690.62V429a31.75,31.75,0,0,0,1.74,10.69q1.73,4.92,8.66,4.92a20,20,0,0,0,6.65-1.45,19.66,19.66,0,0,0,5.78-3.75l3.75-2.32.58-.57.87.57Z"/><path class="cls-1" d="M775.75,463.09l-2.31.29H719.69a8,8,0,0,1-3.47-.58l.87-1.73,2-1.45q6.93-2.6,10.12-7.51a13,13,0,0,0,1.73-7.22v-81.2A13.16,13.16,0,0,0,725.47,353L720,350.4,718.25,349l-2-2.89a20.57,20.57,0,0,1,4.91-.86h4.63a45,45,0,0,0,9.82-.87,46.21,46.21,0,0,0,19.07-7.51l2.32-1.16,5.49-1.15c1.15,0,1.73,1.63,1.73,4.91l.29,106.33.29,3.76q2.31,8.39,11.55,10.11l.87,1.16.58.58Zm-18.5-145.92a20.38,20.38,0,0,1-13.58,4.62q-8.67,0-14.16-4.62-4.9-4.92-4.91-13.29t5.49-13.3a21.67,21.67,0,0,1,13.58-6.06A18.27,18.27,0,0,1,757,290.3a18.85,18.85,0,0,1,.28,26.87Z"/><path class="cls-1" d="M869.8,448.06Q858,466,836,466q-24.86,0-40.16-15.31-10.41-10.41-14.74-28.9-.58-4-.87-6.93a5.13,5.13,0,0,0-.28-1.45q-.59-4.33-1.16-7.22a94.23,94.23,0,0,1,2.89-24.56q4.62-19.37,17.05-32.08l2.6-1.44,2.6-1.45c1,1,1.44,1.64,1.44,2l-.29,2.32-.57,1.73-2.6,6.36a65.92,65.92,0,0,0-2.61,19.07q0,20.81,5.49,32.65,8.67,19.93,31.5,19.94a22.18,22.18,0,0,0,8.09-1.45q18.21-6.06,18.21-28.6l.28-5.78q0-11.85-4.91-19.07-5.21-6.94-12.71-6.94-7.23,0-10.69,7.51l-1.74,7.81q-15,0-20.8-9.25-3.76-5.77-3.76-15.6,0-11.57,6.07-18.5,6.36-6.64,18.2-6.64,21.39,0,35.26,17.62,13.58,17.93,13.58,49.7Q881.36,430.45,869.8,448.06Z"/><path class="cls-1" d="M1005.92,462.8l-4,.58H954.2q-4.34-.87-5.2-2.89l.29-2.31,1.15-2a15.82,15.82,0,0,0,8.67-9.25,23.84,23.84,0,0,0,1.73-9V379.58q0-12.13-5.48-16.76a22.67,22.67,0,0,0-4.05-2.31,15.16,15.16,0,0,0-5.78-.87q-7.51,0-11.56,4.92-4.05,5.49-4,14.16V436.8a23.06,23.06,0,0,0,2.6,11,16.74,16.74,0,0,0,7.8,8.09l1.15,1.73,1.45,3.47c-.39,1.15-2.12,1.93-5.2,2.31h-48q-6.64,0-7.51-1.73l1.73-3.47,1.74-2a14.36,14.36,0,0,0,7.8-6.94,23,23,0,0,0,2.89-11.85V377.85q0-9.24-4.63-14.74l-4.62-4.33-4-2.89a8.91,8.91,0,0,1-1.45-3.18q.29-1.74,4.62-2.89l2.32-.29a47.49,47.49,0,0,0,25.71-7.22q3.18-1.74,9-7.52l2-1.73,2-.87a5,5,0,0,1,1.15.87.26.26,0,0,1,.29.29l.58,2.31v13.87q6.06-9.54,18.49-13.29l11-2q16.75,0,26.59,9.82t9.82,28.61l-.29,5.78v58.94l.87,8.09a12.8,12.8,0,0,0,4,6.94l6.07,4.62,1.16,1.45.58,2A5.28,5.28,0,0,1,1005.92,462.8Z"/><path class="cls-2" d="M1141.32,450.09q-13.86,10.7-36.41,15.6a64.49,64.49,0,0,1-10.4,1.73q-5.77.58-9.24.58-33.81,0-53.46-12.71-13.59-8.39-20.52-24.27l-3.46-13q0-21.66,19.07-31.2,3.46-1.46,19.36-4.92,12.42,0,24.56,10.41l9.25,10.4a25.87,25.87,0,0,1,3.46,12.42c-.19,1.16-1.15,1.74-2.89,1.74a10,10,0,0,1-3.18-.58l-2.89-1.16q-2.6-3.47-9.82-5.49l-6.36-1.44a12.87,12.87,0,0,0-7.51,2q-4.34,3.77-5.49,12.14c0,6.35,1.54,11.37,4.62,15q7.52,9.54,26.3,9.54,20.81,0,32.36-9,11.26-8.67,11.27-25.72,0-12.42-11.56-22.25a55.92,55.92,0,0,0-11.85-7.22l-54-19.07a36.87,36.87,0,0,1-16.18-15.89q-6.07-10.41-6.07-24.27l2.31-14.45q4.62-16.75,16.47-27.16,16.47-14.75,45.37-14.74,10.68,0,13,.29a26.78,26.78,0,0,1,4.34.86c1.53.39,3.27.78,5.2,1.16a41.72,41.72,0,0,1,19.93,9l3.18,1.44a20.28,20.28,0,0,0,7.23,1.74,12.28,12.28,0,0,0,7.22-2l4.34-1.44,7.8-1.44,2.31.57.87,1.45c0,1.73-2.22,4.82-6.65,9.24q-8.1,3.76-11.56,7.23-13,10.69-18.2,29.18-2.33,8.39-6.07,8.38-2,0-5.49-4.62l-2.6-4.62q-2.89-12.43-12.72-18.21c-1.92-1.15-5-2.12-9.24-2.89q-9.54,0-14.74,2.31-9,3.76-9,14.16c0,4.44.87,7.8,2.6,10.12q2.31,3.75,7.81,6.06l58.65,23.7q9.82,6.06,14.16,11.27Q1161,385.93,1161,407.9,1161,433.91,1141.32,450.09Z"/><path class="cls-1" d="M1233.61,441.13a4.29,4.29,0,0,1-1.15,3.18q-2.61,13-13.87,18.2a37.22,37.22,0,0,1-16.76,3.47q-17.92,0-25.43-13.87-1.74-3.47-3.76-14.16v-83.8h-15.31V341.44q17.34-3.46,26.87-15.6a44.49,44.49,0,0,0,9.54-28.32l2-4.62c1.92-2.89,4-4.43,6.07-4.63l2.6.87a9.32,9.32,0,0,1,1.15,6.07l.58,42.18h20.52v16.76h-20.52V429a31.75,31.75,0,0,0,1.74,10.69q1.72,4.92,8.67,4.92a19.94,19.94,0,0,0,6.64-1.45,19.66,19.66,0,0,0,5.78-3.75l3.76-2.32.57-.57.87.57Z"/><path class="cls-1" d="M1359.31,462.8l-1.74.58h-39.29c-1.55,0-2.7-1-3.47-2.89q-1.74-2.6-1.74-9.25a32.68,32.68,0,0,1-14.73,12.43,40.33,40.33,0,0,1-13.87,2.31q-18.21,0-28.32-8.67-10.39-8.67-10.4-24.56V378.43a32.37,32.37,0,0,0-1.73-11.27,22.72,22.72,0,0,0-9.54-11l-1.16-1.74-1.44-3.17a11.09,11.09,0,0,1,3.18-1.16,13.3,13.3,0,0,1,3.46-.29,30.56,30.56,0,0,0,6.94-.58,45.85,45.85,0,0,0,27.16-14.45l1.74-1.15,4-1.45q1.15,1.17,1.16,6.94V423.5c0,4.63.76,8.29,2.31,11q3.47,6.66,13.58,6.65,10.4,0,14.74-6.36a20.88,20.88,0,0,0,2.88-11.27V377.85q0-9.83-5.49-16.18l-5.77-4.34q-4.63-3.75-4.63-5.78,0-1.73,8.09-1.73a60.54,60.54,0,0,0,6.94-.58l3.47-.86a15.13,15.13,0,0,1,1.73-.29q13.29-3.48,21.09-12.43l1.45-1.44a5,5,0,0,1,3.47-1.74l1.44.58c1,1.54,1.45,4.24,1.45,8.09v88.13q0,15.33,5.49,22.54a21.86,21.86,0,0,0,5.77,4.91l4.63,2.32.86,1.44A12.67,12.67,0,0,1,1359.31,462.8Z"/><path class="cls-1" d="M1490.92,462.8l-4,.58H1439.2q-4.34-.87-5.2-2.89l.29-2.31,1.15-2a15.82,15.82,0,0,0,8.67-9.25,23.85,23.85,0,0,0,1.74-9V379.58q0-12.13-5.49-16.76a22,22,0,0,0-4-2.31,15.16,15.16,0,0,0-5.78-.87q-7.52,0-11.56,4.92-4,5.49-4,14.16V436.8a23.06,23.06,0,0,0,2.6,11,16.74,16.74,0,0,0,7.8,8.09l1.16,1.73,1.44,3.47c-.39,1.15-2.12,1.93-5.2,2.31h-48q-6.65,0-7.51-1.73l1.73-3.47,1.74-2a14.36,14.36,0,0,0,7.8-6.94,23,23,0,0,0,2.89-11.85V377.85q0-9.24-4.62-14.74l-4.63-4.33-4-2.89a8.91,8.91,0,0,1-1.45-3.18c.19-1.16,1.74-2.12,4.63-2.89l2.31-.29a47.49,47.49,0,0,0,25.71-7.22q3.18-1.74,9-7.52l2-1.73,2-.87a5,5,0,0,1,1.15.87.26.26,0,0,1,.29.29l.58,2.31v13.87q6.08-9.54,18.49-13.29l11-2q16.76,0,26.59,9.82t9.82,28.61l-.29,5.78v58.94l.87,8.09a12.8,12.8,0,0,0,4,6.94l6.07,4.62,1.16,1.45.58,2A5.28,5.28,0,0,1,1490.92,462.8Z"/><path class="cls-1" d="M1564.46,441.13a4.3,4.3,0,0,1-1.16,3.18q-2.6,13-13.87,18.2-6.93,3.47-16.76,3.47-17.91,0-25.43-13.87c-1.15-2.31-2.41-7-3.75-14.16v-83.8h-15.32V341.44q17.34-3.46,26.88-15.6a44.54,44.54,0,0,0,9.53-28.32l2-4.62q2.88-4.33,6.06-4.63l2.6.87a14.77,14.77,0,0,1,.87,2,17,17,0,0,1,.29,4l.58,42.18h20.51v16.76H1537V429a31.75,31.75,0,0,0,1.73,10.69q1.74,4.92,8.67,4.92a20,20,0,0,0,6.65-1.45,19.5,19.5,0,0,0,5.77-3.75l3.76-2.32.58-.57.87.57Z"/><path class="cls-2" d="M1713.47,282.78a124,124,0,0,1-13.87,16.47q-18.19,17.06-40.16,20.81l-2.31,1.44q-5.51,4.63-5.49,15.89l-.29,91,.86,6.06q3.46,13.59,16.76,19.65l3.76,1.45c2.31,1.15,3.56,2.41,3.76,3.75l-.29.58a6.91,6.91,0,0,1-1.74,1.74l-6.06,1.73h-70.22q-8.67-.87-9-3.76l.58-1.44c.38-1,2.12-2.31,5.2-4.05l1.73-.86a22.64,22.64,0,0,0,11.85-9.25,26.41,26.41,0,0,0,4.34-14.74V362.82a12.5,12.5,0,0,0-1.16-6.06q-2.6-6.36-9.54-6.36l-1.15-1.45a9.57,9.57,0,0,1-1.45-4.33q0-5.49,6.36-11.27,7.8-7.52,28-17.34a47.72,47.72,0,0,0-7.8.87h-.29a25.68,25.68,0,0,0-4.91,1.44,243.46,243.46,0,0,0-51.73,17.34h-5.2a3,3,0,0,1-2.6-1.15l.29-4.05a7.14,7.14,0,0,1,1.16-2.89A82.4,82.4,0,0,0,1574.2,305a57.28,57.28,0,0,0,2-14.16q0-7.22,8.67-11.84,8.08-4.62,23.11-4.63a135.34,135.34,0,0,1,19.65,1.74c2.31.19,5.68.58,10.12,1.15a9.08,9.08,0,0,1,1.44.29l2.6.58q6.93,1.45,11.27,2.6l4.91,1.73a47,47,0,0,0,13,1.74,50.84,50.84,0,0,0,17.62-3.18q8.09-2.88,16.76-12.14l1.73-1.15,3.47-1.16,1.74.58c1.54,1.15,2.31,3.37,2.31,6.64v4.63Z"/><path class="cls-1" d="M1791.66,420.9q0,11.85-18.2,30.63-14.16,14.16-30.92,14.16-22.83,0-37-16.76-9.54-12.14-14.16-31.21l-2.31-17q0-29.48,13.87-46.81,9.24-11.85,26-17.05a49.05,49.05,0,0,1,14.16-2.6,62.25,62.25,0,0,1,8.66.57q4.34,0,5.49,1.74l4,2.31a28.64,28.64,0,0,0,11.85,2.6,40.38,40.38,0,0,0,9.24-1.44l4.34,5.49q4.34,7.8,4.33,19.65l-.29,5.77A34,34,0,0,1,1785.3,390q-5.49,8.67-16.18,15.9-5.49,4-19.65,9l-4.91.57q-9.54,0-18.49-6.35l-7.51-6.65q1.44,11,4.33,17,8.67,17.34,30.63,17.34a14.71,14.71,0,0,0,6.07-1.45q13.58-4.91,25.71-18.2l2-2,3.75-2c.58.2,1.06,1,1.45,2.31Zm-36.12-64.14q-4.62-6.36-14.45-6.36-13.58,0-19.36,9.53c-1,2.31-1.83,4.73-2.6,7.23a33,33,0,0,0-1.15,9.53,18.82,18.82,0,0,1,6.64-6.35,20.66,20.66,0,0,1,7.52-1.45,29.81,29.81,0,0,1,9.53,1.45c2.5,1.15,3.76,3.56,3.76,7.22a5.18,5.18,0,0,1-1.16,3.76l-2.6,1.15a10.84,10.84,0,0,1-3.47-.58l-2.89-1.73-1.44-.87-2.89-.86a2.76,2.76,0,0,0-2.6,1.73l-.58,7.51c0,3.28,1.06,5.78,3.18,7.52,1.92,1.92,4.81,2.89,8.67,2.89l5.78-1.16q13-4.62,15-22.25Q1760.45,363.41,1755.54,356.76Z"/><path class="cls-1" d="M1895.77,435.35Q1885.36,466,1851.85,466q-22.55,0-37-15.31-9.25-10.12-14.45-28.61l-2.6-15.32v-6.06q0-32.08,15.6-49.41,15.9-17.06,39-17l4.63.29a7,7,0,0,1,4,1.44l4.63,1.73,6.64.58a24.39,24.39,0,0,0,10.4-2l5.49,6.36a38.45,38.45,0,0,1,5.49,20.51l-1.73,8.38q-6.65,18.79-25.14,18.78-11,0-16.47-4.62-2.6-1.74-6.65-10.4,0-6.93,2-8.09a17.22,17.22,0,0,1,8.67,2.31q5.47,0,7.8-3.18,1.15-1.44,1.44-5.49a8.35,8.35,0,0,0-4.91-7.8l-4.91-1.73q-10.41,0-16.76,6.35-10.69,10.69-10.69,35.83a108.76,108.76,0,0,0,4.33,19.65q8.09,20.23,27.45,22.83a34.35,34.35,0,0,0,24-9.25l8.09-10.11q2.88-2.9,5.2-3.18a4.31,4.31,0,0,1,2,1.16l.58,2.89.58,4Q1897.79,431,1895.77,435.35Z"/><path class="cls-1" d="M2024.75,462.8l-4,.58H1973q-4.33-.87-5.2-2.89l.29-2.31,1.15-2a15.82,15.82,0,0,0,8.67-9.25,23.84,23.84,0,0,0,1.73-9V379.58q0-12.13-5.49-16.76a22.26,22.26,0,0,0-4-2.31,15.16,15.16,0,0,0-5.78-.87q-7.52,0-11.56,4.92-4,5.49-4,14.16V436.8a23.06,23.06,0,0,0,2.6,11,16.74,16.74,0,0,0,7.8,8.09l1.16,1.73,1.44,3.47c-.39,1.15-2.12,1.93-5.2,2.31h-48q-6.64,0-7.51-1.73l1.73-3.47,1.74-2a14.36,14.36,0,0,0,7.8-6.94,23,23,0,0,0,2.89-11.85V377.85q0-9.24-4.63-14.74l-4.62-4.33-4-2.89a8.91,8.91,0,0,1-1.45-3.18q.29-1.74,4.62-2.89l2.32-.29a47.49,47.49,0,0,0,25.71-7.22q3.18-1.74,9-7.52l2-1.73,2-.87a5,5,0,0,1,1.15.87.26.26,0,0,1,.29.29l.58,2.31v13.87q6.06-9.54,18.49-13.29l11-2q16.75,0,26.59,9.82t9.82,28.61l-.29,5.78v58.94l.87,8.09a12.8,12.8,0,0,0,4,6.94l6.07,4.62,1.16,1.45.57,2A5.19,5.19,0,0,1,2024.75,462.8Z"/><path class="cls-1" d="M2091.38,463.09l-2.31.29h-53.75a7.91,7.91,0,0,1-3.46-.58l.86-1.73,2-1.45q6.93-2.6,10.11-7.51a12.87,12.87,0,0,0,1.73-7.22v-81.2A13.16,13.16,0,0,0,2041.1,353l-5.49-2.6-1.73-1.45-2-2.89a20.41,20.41,0,0,1,4.91-.86h4.62a45.06,45.06,0,0,0,9.83-.87,46.27,46.27,0,0,0,19.07-7.51l2.31-1.16,5.49-1.15c1.15,0,1.73,1.63,1.73,4.91l.29,106.33.29,3.76q2.31,8.39,11.56,10.11l.87,1.16.57.58Zm-18.49-145.92a20.38,20.38,0,0,1-13.58,4.62q-8.67,0-14.16-4.62-4.92-4.92-4.91-13.29t5.49-13.3a21.65,21.65,0,0,1,13.58-6.06,18.27,18.27,0,0,1,13.29,5.78,18.84,18.84,0,0,1,.29,26.87Z"/><path class="cls-1" d="M2209.82,509.61l-4,.29H2152a10.84,10.84,0,0,1-3.47-.58,2.77,2.77,0,0,1-1.73-2.31c.19,0,.29-.19.29-.58a1.13,1.13,0,0,1,.29-.86l.29-.29a9.06,9.06,0,0,1,1.15-1.45l2-1.73q9.24-2.6,13-9a20.5,20.5,0,0,0,2.6-10.69V451.82A20.88,20.88,0,0,1,2153.76,464a38.46,38.46,0,0,1-12.71,2q-22,0-33.52-16.76-12.14-16.47-12.13-39.87,0-26.6,8.09-43.93,13.86-31.49,48.83-31.49,9.82,0,15.89,3.46,1.15.3,4.05,3.76a8.31,8.31,0,0,1,1.44,4.34q0,1.44-2.31,2.31a21.08,21.08,0,0,1-6.65-1.16l-5.2-1.73q-10.11,0-17.91,8.09-12.14,13.86-12.14,48,0,16.75,3.18,25.71,4.9,13.88,17,13.87c4.62,0,8.28-1.05,11-3.18q5.78-4.9,5.78-18.49V383.63a33.85,33.85,0,0,0-1.16-10.12,20,20,0,0,0-4.62-7.51l-4.62-3.47-3.76-2.6-1.16-2,.87-1.44,2.6-.29,3.76-.58A61.23,61.23,0,0,0,2183.82,344q1.44-1.16,5.49-5.2l2.89-2.89,1.73-1.73,3.76-2,1.44.58q.87.87.87,8.09V482.45a33.22,33.22,0,0,0,2.31,11.85q2.31,6.06,9.25,8.67a12.17,12.17,0,0,1,2.31,5.49Z"/><path class="cls-1" d="M2337.88,462.8l-1.73.58h-39.3q-2.31,0-3.47-2.89-1.73-2.6-1.73-9.25a32.75,32.75,0,0,1-14.74,12.43A40.33,40.33,0,0,1,2263,466q-18.2,0-28.31-8.67-10.41-8.67-10.41-24.56V378.43a32.37,32.37,0,0,0-1.73-11.27,22.61,22.61,0,0,0-9.54-11l-1.15-1.74-1.45-3.17a11.21,11.21,0,0,1,3.18-1.16,13.4,13.4,0,0,1,3.47-.29,30.46,30.46,0,0,0,6.93-.58,45.91,45.91,0,0,0,27.17-14.45l1.73-1.15,4.05-1.45c.76.78,1.15,3.09,1.15,6.94V423.5q0,6.94,2.31,11,3.46,6.66,13.58,6.65,10.41,0,14.74-6.36a20.89,20.89,0,0,0,2.89-11.27V377.85q0-9.83-5.49-16.18l-5.78-4.34q-4.62-3.75-4.62-5.78c0-1.15,2.69-1.73,8.09-1.73a60.24,60.24,0,0,0,6.93-.58l3.47-.86a15.13,15.13,0,0,1,1.73-.29q13.29-3.48,21.1-12.43l1.44-1.44a5,5,0,0,1,3.47-1.74l1.44.58q1.46,2.31,1.45,8.09v88.13q0,15.33,5.49,22.54a21.93,21.93,0,0,0,5.78,4.91l4.62,2.32.87,1.44A12.81,12.81,0,0,1,2337.88,462.8Z"/><path class="cls-1" d="M2444,420.9q0,11.85-18.2,30.63-14.16,14.16-30.92,14.16-22.83,0-37-16.76-9.52-12.14-14.16-31.21l-2.31-17q0-29.48,13.87-46.81,9.26-11.85,26-17.05a49.05,49.05,0,0,1,14.16-2.6,62.29,62.29,0,0,1,8.67.57c2.89,0,4.71.58,5.49,1.74l4,2.31a28.64,28.64,0,0,0,11.85,2.6,40.38,40.38,0,0,0,9.24-1.44l4.34,5.49q4.33,7.8,4.33,19.65l-.29,5.77a34,34,0,0,1-5.49,19.07q-5.49,8.67-16.18,15.9-5.49,4-19.65,9l-4.91.57q-9.54,0-18.49-6.35l-7.51-6.65q1.44,11,4.33,17,8.67,17.34,30.63,17.34a14.71,14.71,0,0,0,6.07-1.45q13.58-4.91,25.71-18.2l2-2,3.75-2c.58.2,1.06,1,1.45,2.31Zm-36.12-64.14q-4.62-6.36-14.45-6.36-13.57,0-19.36,9.53c-1,2.31-1.83,4.73-2.6,7.23a33,33,0,0,0-1.15,9.53,18.82,18.82,0,0,1,6.64-6.35,20.7,20.7,0,0,1,7.52-1.45,29.81,29.81,0,0,1,9.53,1.45c2.5,1.15,3.76,3.56,3.76,7.22a5.18,5.18,0,0,1-1.16,3.76l-2.6,1.15a10.84,10.84,0,0,1-3.47-.58l-2.88-1.73-1.45-.87-2.89-.86a2.77,2.77,0,0,0-2.6,1.73l-.58,7.51c0,3.28,1.06,5.78,3.18,7.52,1.92,1.92,4.81,2.89,8.67,2.89l5.78-1.16q13-4.62,15-22.25Q2412.77,363.41,2407.86,356.76Z"/></svg>