<svg id="レイヤー_1" data-name="レイヤー 1" xmlns="http://www.w3.org/2000/svg" viewBox="0 0 402.77 471.87"><defs><style>.cls-1{fill:#c9171e;}</style></defs><title>logo-icon-red</title><path class="cls-1" d="M402.77,0c-10.51,39-43.84,75.45-73.08,101.8-22.42,15.7-58.73,31.93-83.39,43.51-45.14,24.09-80,88.85-66.48,139.55,8.16-34.13,33.39-62.9,61.18-83,66.89,80.44,47.22,223.6-50.83,270.05,138.23-24.57,184-195.35,76.35-286.37,4.63-5.95,14.82-7.15,22.94-11.08a129.13,129.13,0,0,0,28-18.93c20.39-18.3,43-42.51,54.49-67.78C386.74,63.8,400.67,28.23,402.77,0Z"/><path class="cls-1" d="M268.61,99.22C219.32,132,158.92,179,134.12,234.35c-18.52,35.35-29.06,98.15,9.41,118,7.31,3.77,12.7,4.33,25.81,1.85,51.58-4.57,55.14,83.29-5.73,113.41a46.18,46.18,0,0,1-9.31,3.81c4.91-.7,13.27-2,16.21-3,12-4,26.53-13.33,37.44-19.46,40.18-35.63,78.35-119,27.2-159.81-14.12-7.45-23.31,1.74-42.26,11.72-6.9,2.92-16-2.1-19.45-7.53C141.16,217.74,219.17,147.17,268.61,99.22Z"/><path class="cls-1" d="M84.54,256.1c-30.36,39.19-44.27,79.24-28.66,128,3.7-20.31,10.32-44.32,21.76-61.71,2.22-4.06,7.72-13.74,12.34-15.48C85,291.71,85.2,271.9,84.54,256.1Z"/><path class="cls-1" d="M216.32,122.23c-69.6,48.36-111.35,112-115.46,197.88-1.53-9.76-4.64-32.42-5-42-1.37-14.52-.68-32.3-.83-46.86-13,11.67-26.72,27.24-36,42C-6.9,386.18,99.76,463.38,99.76,463.38s-2-1.14-12.71-5.63C4.75,416.58-25.25,304.33,23.46,226.82,48.1,187,91.44,163.44,136.62,148,161.14,139.56,193,133.62,216.32,122.23Z"/></svg>