<svg id="レイヤー_1" data-name="レイヤー 1" xmlns="http://www.w3.org/2000/svg" viewBox="0 0 2107.61 243.3"><defs><style>.cls-1{fill:#c9171e;}.cls-2{fill:#fbfaf5;}</style></defs><title>logo-text-white</title><path class="cls-1" d="M202.27,196.49l-59.82.29q-9,0-10.11-2.89c0-1.74,1.45-3.76,4.33-6.07l4.63-2.89c2.31-1.16,3.75-2.5,4.33-4.05l1.16-6.35-11.27-42.19L122.8,156q-3.47,6.06-7.22,6.06-3.47,0-6.36-7.22l-1.15-3.76-13-29.76-6.65,20.52Q78.6,166.44,67.33,180.6q-16.77,20.81-38.15,20.8-17,0-24.85-12.42Q0,181.47,0,169.62q1.74-13.87,10.4-19.94a21.52,21.52,0,0,1,12.43-3.76l4,.58c1.35.19,2.5,1.25,3.47,3.18l1.44,4q2.31,4.34,5.78,4.34l2.89.58q7.8,0,15.32-8.38Q67.32,137.54,78,106.33c0-.19-.49-.38-1.45-.57a10.68,10.68,0,0,1-1.44-.58,16.11,16.11,0,0,0-3.18-.87,13.7,13.7,0,0,1-4.33-.58q-4.34,0-6.65,1.74c-1.55,1.54-2.31,4.43-2.31,8.67q0,6.64-3.76,8.66l-2,.87q-10.41,0-14.45-6.64-2.59-4.34-2.6-12.14,0-12.14,7.22-18.78,7.52-6.64,19.08-6.65a31.12,31.12,0,0,1,6.93.58,40.3,40.3,0,0,1,15.6,6.07l8.67-28.9Q96.8,47.69,96.8,41a22.63,22.63,0,0,0-5.49-15.31l-5.49-4.34a29.82,29.82,0,0,1-6.65-7.22,27.28,27.28,0,0,1-2-6.07c1-1.73,3.47-2.6,7.51-2.6l5.78.58,9.83,3.47a87,87,0,0,0,24,3.46,67.24,67.24,0,0,0,7.22-.29q4.62-.57,7.52-1.15a71.08,71.08,0,0,0,14.73-5.2l3.47-.58,2.89-.29q4.33,0,5.2,2.31a10.48,10.48,0,0,1-1.15,5.2,42.25,42.25,0,0,1-4.92,6.94l-4.62,4.33A24.22,24.22,0,0,0,149.68,39L150,44.5A15.43,15.43,0,0,0,151.41,50L160.66,80,178.28,137l9.54,32.94a34.43,34.43,0,0,0,4.05,7.23q5.19,7.51,13.29,8.67l2.31,2.31c1.73,1.73,2.6,3.28,2.6,4.62Q210.07,195.06,202.27,196.49ZM113.56,57.21l-12.14,44.5,5.78,8.09a123.5,123.5,0,0,1,10.69,22.54l11.56-20.23Z"/><path class="cls-2" d="M301.89,168.75Q291.5,199.38,258,199.38q-22.53,0-37-15.32-9.26-10.11-14.45-28.6l-2.6-15.32v-6.07q0-32.07,15.6-49.41,15.89-17,39-17l4.62.28a7,7,0,0,1,4.05,1.45l4.62,1.73,6.65.58a24.42,24.42,0,0,0,10.4-2L294.38,76a38.51,38.51,0,0,1,5.49,20.52l-1.73,8.38q-6.66,18.78-25.14,18.78-11,0-16.47-4.62-2.61-1.74-6.65-10.4c0-4.63.68-7.32,2-8.09a17.21,17.21,0,0,1,8.66,2.31q5.49,0,7.81-3.18c.76-1,1.25-2.79,1.44-5.49a8.35,8.35,0,0,0-4.91-7.8L260,84.66q-10.41,0-16.76,6.36-10.69,10.7-10.69,35.83a108.76,108.76,0,0,0,4.33,19.65q8.09,20.24,27.45,22.83a34.31,34.31,0,0,0,24-9.25L296.4,150c1.93-1.93,3.66-3,5.21-3.18a4.37,4.37,0,0,1,2,1.15l.58,2.89.57,4Q303.92,164.42,301.89,168.75Z"/><path class="cls-2" d="M380.83,174.53a4.34,4.34,0,0,1-1.15,3.18q-2.61,13-13.87,18.2a37.22,37.22,0,0,1-16.76,3.47q-17.93,0-25.43-13.87-1.74-3.47-3.76-14.16V87.55H304.55V74.84q17.34-3.47,26.87-15.61A44.47,44.47,0,0,0,341,30.92l2-4.63c1.92-2.89,3.95-4.42,6.07-4.62l2.6.87a17.78,17.78,0,0,1,.87,2,17.17,17.17,0,0,1,.28,4.05l.58,42.18H373.9V87.55H353.38v74.84a31.75,31.75,0,0,0,1.74,10.69q1.72,4.92,8.66,4.92a20,20,0,0,0,6.65-1.45,19.71,19.71,0,0,0,5.78-3.76l3.76-2.31.57-.58.87.58Z"/><path class="cls-2" d="M438.51,196.49l-2.31.29H382.45a8,8,0,0,1-3.47-.58l.87-1.73,2-1.45c4.63-1.73,8-4.23,10.12-7.51a13,13,0,0,0,1.73-7.23V97.09q0-6.36-5.49-10.69l-5.49-2.6L381,82.35l-2-2.89a20.05,20.05,0,0,1,4.92-.86h4.62a45,45,0,0,0,9.82-.87,46.13,46.13,0,0,0,19.08-7.52l2.31-1.15,5.49-1.16q1.72,0,1.73,4.92l.29,106.33.29,3.76q2.31,8.39,11.56,10.11l.86,1.16.58.57ZM420,50.57a20.41,20.41,0,0,1-13.59,4.62c-5.77,0-10.5-1.54-14.15-4.62q-4.92-4.92-4.92-13.3T392.85,24a21.73,21.73,0,0,1,13.58-6.07,18.31,18.31,0,0,1,13.3,5.78,17.42,17.42,0,0,1,5.77,13.58A17.55,17.55,0,0,1,420,50.57Z"/><path class="cls-2" d="M532.56,181.46q-11.85,17.92-33.81,17.92-24.86,0-40.16-15.32-10.41-10.4-14.74-28.89-.59-4-.86-6.94a4.86,4.86,0,0,0-.29-1.44q-.58-4.33-1.16-7.23A94.33,94.33,0,0,1,444.43,115q4.62-19.35,17.05-32.07l2.6-1.45,2.6-1.44c1,1,1.44,1.64,1.44,2l-.29,2.31-.57,1.74-2.6,6.35a66,66,0,0,0-2.6,19.08q0,20.8,5.49,32.65,8.67,19.94,31.49,19.94a22.18,22.18,0,0,0,8.09-1.45q18.21-6.06,18.21-28.61l.29-5.78q0-11.83-4.92-19.07-5.19-6.93-12.71-6.93-7.23,0-10.69,7.51l-1.74,7.8q-15,0-20.8-9.24Q471,102.59,471,92.75q0-11.55,6.07-18.49,6.36-6.65,18.21-6.64,21.37,0,35.25,17.62,13.58,17.92,13.58,49.7Q544.12,163.85,532.56,181.46Z"/><path class="cls-2" d="M668.68,196.2l-4,.58H617q-4.34-.87-5.2-2.89l.29-2.31,1.15-2a15.78,15.78,0,0,0,8.67-9.24,23.85,23.85,0,0,0,1.74-9V113q0-12.14-5.49-16.76a22,22,0,0,0-4-2.31,15.16,15.16,0,0,0-5.78-.87q-7.51,0-11.56,4.92-4.05,5.49-4,14.15v58.08a23,23,0,0,0,2.6,11,16.66,16.66,0,0,0,7.8,8.09l1.16,1.74,1.44,3.47q-.59,1.72-5.2,2.31h-48q-6.64,0-7.51-1.74l1.73-3.46,1.74-2a14.3,14.3,0,0,0,7.8-6.93,23,23,0,0,0,2.89-11.85V111.25q0-9.25-4.62-14.74l-4.63-4.33-4-2.89a9.16,9.16,0,0,1-1.45-3.18c.19-1.16,1.74-2.12,4.63-2.89l2.31-.29a47.57,47.57,0,0,0,25.71-7.22q3.18-1.74,9-7.52l2-1.73,2-.87a5,5,0,0,1,1.15.87.26.26,0,0,1,.29.29l.58,2.31V82.93q6.07-9.54,18.49-13.29l11-2q16.75,0,26.59,9.82T658,106.05l-.29,5.77v59l.87,8.09a12.79,12.79,0,0,0,4,6.94l6.06,4.62,1.16,1.45.58,2A5.34,5.34,0,0,1,668.68,196.2Z"/><path class="cls-1" d="M804.08,183.49q-13.86,10.68-36.41,15.6a64.49,64.49,0,0,1-10.4,1.73q-5.78.59-9.24.58-33.81,0-53.46-12.71-13.59-8.38-20.52-24.28l-3.46-13q0-21.67,19.07-31.2,3.47-1.45,19.36-4.92,12.42,0,24.56,10.4l9.25,10.41a25.87,25.87,0,0,1,3.46,12.42c-.19,1.16-1.15,1.74-2.89,1.74a9.94,9.94,0,0,1-3.17-.58l-2.89-1.16q-2.61-3.47-9.83-5.49l-6.36-1.44a12.8,12.8,0,0,0-7.51,2q-4.33,3.76-5.49,12.14,0,9.52,4.62,15,7.51,9.54,26.3,9.54,20.8,0,32.36-9,11.27-8.67,11.27-25.72,0-12.42-11.56-22.25a56.08,56.08,0,0,0-11.84-7.22l-54-19.07A36.87,36.87,0,0,1,689.08,81.2Q683,70.79,683,56.92l2.31-14.44q4.62-16.75,16.47-27.17Q718.26.58,747.16.58q10.68,0,13,.29a26.78,26.78,0,0,1,4.34.86q2.31.59,5.2,1.16a41.61,41.61,0,0,1,19.94,9l3.18,1.44A20.19,20.19,0,0,0,800,15a12.28,12.28,0,0,0,7.22-2l4.34-1.44,7.8-1.45,2.31.58.87,1.44q0,2.61-6.65,9.25-8.08,3.77-11.56,7.23-13,10.68-18.2,29.18-2.32,8.39-6.07,8.38-2,0-5.49-4.62L772,56.92q-2.89-12.42-12.71-18.2-2.89-1.74-9.25-2.89-9.54,0-14.74,2.31-9,3.77-8.95,14.16,0,6.64,2.6,10.11,2.31,3.77,7.8,6.07l58.66,23.7q9.81,6.06,14.15,11.27,14.16,15.89,14.16,37.85Q823.73,167.31,804.08,183.49Z"/><path class="cls-2" d="M896.37,174.53a4.29,4.29,0,0,1-1.15,3.18q-2.61,13-13.87,18.2-6.93,3.47-16.76,3.47-17.93,0-25.43-13.87-1.74-3.47-3.76-14.16V87.55H820.09V74.84Q837.43,71.38,847,59.23a44.47,44.47,0,0,0,9.54-28.31l2-4.63c1.92-2.89,4-4.42,6.07-4.62l2.6.87a17.78,17.78,0,0,1,.87,2,17,17,0,0,1,.29,4.05l.57,42.18h20.52V87.55H868.92v74.84a31.75,31.75,0,0,0,1.74,10.69q1.73,4.92,8.67,4.92a19.94,19.94,0,0,0,6.64-1.45,19.58,19.58,0,0,0,5.78-3.76l3.76-2.31.57-.58.87.58Z"/><path class="cls-2" d="M1022.07,196.2l-1.74.58H981c-1.55,0-2.7-1-3.47-2.89-1.16-1.74-1.73-4.81-1.73-9.25a32.75,32.75,0,0,1-14.74,12.43,40.33,40.33,0,0,1-13.87,2.31q-18.21,0-28.32-8.67-10.39-8.67-10.4-24.56V111.82a32.35,32.35,0,0,0-1.73-11.26,22.67,22.67,0,0,0-9.54-11l-1.16-1.74-1.44-3.18a11.47,11.47,0,0,1,3.18-1.15,13.34,13.34,0,0,1,3.47-.29,30.46,30.46,0,0,0,6.93-.58,45.91,45.91,0,0,0,27.16-14.45L937.12,67l4-1.45c.77.77,1.16,3.09,1.16,6.94V156.9c0,4.63.76,8.29,2.31,11q3.47,6.66,13.58,6.65,10.39,0,14.74-6.36a20.91,20.91,0,0,0,2.89-11.27V111.25q0-9.82-5.49-16.18l-5.78-4.34Q959.94,87,959.94,85q0-1.73,8.09-1.73a60.37,60.37,0,0,0,6.94-.58l3.47-.87a15.13,15.13,0,0,1,1.73-.29q13.29-3.47,21.09-12.42l1.45-1.44a5,5,0,0,1,3.47-1.74l1.44.58c1,1.54,1.45,4.24,1.45,8.09v88.13q0,15.31,5.49,22.54a22.22,22.22,0,0,0,5.77,4.91l4.63,2.31.87,1.45A12.81,12.81,0,0,1,1022.07,196.2Z"/><path class="cls-2" d="M1153.68,196.2l-4,.58H1102q-4.34-.87-5.2-2.89l.29-2.31,1.15-2a15.78,15.78,0,0,0,8.67-9.24,23.85,23.85,0,0,0,1.74-9V113q0-12.14-5.49-16.76a22,22,0,0,0-4-2.31,15.16,15.16,0,0,0-5.78-.87q-7.51,0-11.56,4.92-4.05,5.49-4,14.15v58.08a23.12,23.12,0,0,0,2.6,11,16.66,16.66,0,0,0,7.8,8.09l1.16,1.74,1.44,3.47q-.59,1.72-5.2,2.31h-48q-6.64,0-7.51-1.74l1.74-3.46,1.73-2a14.3,14.3,0,0,0,7.8-6.93,23,23,0,0,0,2.89-11.85V111.25q0-9.25-4.62-14.74l-4.63-4.33-4-2.89a9.16,9.16,0,0,1-1.45-3.18c.19-1.16,1.74-2.12,4.63-2.89l2.31-.29a47.57,47.57,0,0,0,25.71-7.22q3.18-1.74,9-7.52l2-1.73,2-.87a4.84,4.84,0,0,1,1.15.87.26.26,0,0,1,.29.29l.58,2.31V82.93q6.08-9.54,18.49-13.29l11-2q16.76,0,26.59,9.82t9.82,28.61l-.29,5.77v59l.87,8.09a12.79,12.79,0,0,0,4,6.94l6.06,4.62,1.16,1.45.58,2A5.34,5.34,0,0,1,1153.68,196.2Z"/><path class="cls-2" d="M1227.22,174.53a4.3,4.3,0,0,1-1.16,3.18q-2.6,13-13.87,18.2-6.93,3.47-16.76,3.47-17.91,0-25.42-13.87-1.74-3.47-3.76-14.16V87.55h-15.32V74.84q17.34-3.47,26.88-15.61a44.46,44.46,0,0,0,9.53-28.31l2-4.63c1.92-2.89,3.94-4.42,6.06-4.62l2.6.87a14.77,14.77,0,0,1,.87,2,17,17,0,0,1,.29,4.05l.58,42.18h20.51V87.55h-20.51v74.84a32,32,0,0,0,1.73,10.69q1.74,4.92,8.67,4.92a20,20,0,0,0,6.65-1.45,19.71,19.71,0,0,0,5.78-3.76l3.75-2.31.58-.58.87.58Z"/><path class="cls-1" d="M1376.23,16.18a124,124,0,0,1-13.87,16.47q-18.19,17.06-40.16,20.81l-2.31,1.44q-5.49,4.62-5.49,15.89l-.29,91,.86,6.07q3.48,13.59,16.76,19.65l3.76,1.45c2.31,1.15,3.56,2.41,3.76,3.75l-.29.58a6.66,6.66,0,0,1-1.74,1.73l-6.06,1.74h-70.22q-8.67-.87-9-3.76l.58-1.44c.38-1,2.12-2.32,5.2-4.05l1.74-.87a22.58,22.58,0,0,0,11.84-9.24,26.41,26.41,0,0,0,4.34-14.74V96.22a12.57,12.57,0,0,0-1.16-6.07A9.49,9.49,0,0,0,1265,83.8l-1.16-1.45a9.57,9.57,0,0,1-1.45-4.33q0-5.49,6.36-11.27,7.8-7.51,28-17.34a45.54,45.54,0,0,0-7.8.87h-.29a25,25,0,0,0-4.91,1.44A243.46,243.46,0,0,0,1232,69.06h-5.2a3,3,0,0,1-2.6-1.16l.29-4a7.14,7.14,0,0,1,1.16-2.89A82.26,82.26,0,0,0,1237,38.43a57.28,57.28,0,0,0,2-14.16q0-7.21,8.67-11.85,8.08-4.61,23.11-4.62a135.22,135.22,0,0,1,19.65,1.74c2.32.19,5.68.57,10.12,1.15A9.08,9.08,0,0,1,1302,11l2.6.58q6.95,1.44,11.27,2.6l4.91,1.73a47,47,0,0,0,13,1.74,50.8,50.8,0,0,0,17.62-3.18q8.08-2.89,16.76-12.14l1.74-1.15L1373.34,0l1.74.58c1.54,1.15,2.31,3.37,2.31,6.64v4.63Z"/><path class="cls-2" d="M1454.42,154.3q0,11.85-18.2,30.63-14.16,14.16-30.92,14.16-22.83,0-37-16.76-9.52-12.14-14.16-31.21l-2.31-17.05q0-29.46,13.87-46.81,9.26-11.83,26-17.05a49.34,49.34,0,0,1,14.16-2.59,62.29,62.29,0,0,1,8.67.57c2.89,0,4.71.58,5.49,1.74l4,2.31a28.64,28.64,0,0,0,11.85,2.6,39.94,39.94,0,0,0,9.24-1.45l4.34,5.49q4.34,7.8,4.33,19.65l-.29,5.78a34,34,0,0,1-5.49,19.07q-5.49,8.67-16.18,15.9-5.49,4-19.65,8.95l-4.91.58q-9.54,0-18.49-6.36l-7.51-6.64q1.44,11,4.33,17.05,8.67,17.32,30.63,17.33a14.73,14.73,0,0,0,6.07-1.44q13.58-4.91,25.71-18.21l2-2,3.75-2c.58.19,1.06,1,1.45,2.31ZM1418.3,90.15q-4.62-6.34-14.45-6.35-13.57,0-19.36,9.53-1.44,3.47-2.6,7.23a33,33,0,0,0-1.15,9.53,18.85,18.85,0,0,1,6.64-6.36,20.9,20.9,0,0,1,7.52-1.44,30.1,30.1,0,0,1,9.53,1.44c2.5,1.16,3.76,3.57,3.76,7.23a5.13,5.13,0,0,1-1.16,3.75l-2.6,1.16a10.84,10.84,0,0,1-3.47-.58l-2.88-1.73-1.45-.87-2.89-.87a2.77,2.77,0,0,0-2.6,1.74l-.58,7.51q0,4.92,3.18,7.51,2.88,2.89,8.67,2.89l5.78-1.15q13-4.62,15-22.25Q1423.21,96.81,1418.3,90.15Z"/><path class="cls-2" d="M1558.53,168.75q-10.41,30.63-43.92,30.63-22.54,0-37-15.32-9.25-10.11-14.45-28.6l-2.6-15.32v-6.07q0-32.07,15.61-49.41,15.88-17,39-17l4.63.28a7,7,0,0,1,4,1.45l4.63,1.73,6.64.58a24.39,24.39,0,0,0,10.4-2L1551,76a38.51,38.51,0,0,1,5.49,20.52l-1.73,8.38q-6.64,18.78-25.14,18.78-11,0-16.47-4.62-2.6-1.74-6.64-10.4c0-4.63.67-7.32,2-8.09a17.22,17.22,0,0,1,8.67,2.31q5.47,0,7.8-3.18,1.15-1.44,1.44-5.49a8.35,8.35,0,0,0-4.91-7.8l-4.91-1.74q-10.41,0-16.76,6.36-10.69,10.7-10.69,35.83a108.76,108.76,0,0,0,4.33,19.65q8.09,20.24,27.45,22.83a34.35,34.35,0,0,0,24-9.25L1553,150q2.88-2.9,5.2-3.18a4.32,4.32,0,0,1,2,1.15l.58,2.89.58,4Q1560.55,164.42,1558.53,168.75Z"/><path class="cls-2" d="M1687.51,196.2l-4,.58h-47.68q-4.33-.87-5.2-2.89l.29-2.31,1.15-2a15.78,15.78,0,0,0,8.67-9.24,23.85,23.85,0,0,0,1.74-9V113q0-12.14-5.49-16.76a22,22,0,0,0-4-2.31,15.16,15.16,0,0,0-5.78-.87q-7.51,0-11.56,4.92-4.05,5.49-4,14.15v58.08a23,23,0,0,0,2.6,11,16.66,16.66,0,0,0,7.8,8.09l1.16,1.74,1.44,3.47q-.58,1.72-5.2,2.31h-48q-6.64,0-7.51-1.74l1.73-3.46,1.74-2a14.3,14.3,0,0,0,7.8-6.93,23,23,0,0,0,2.89-11.85V111.25q0-9.25-4.62-14.74l-4.63-4.33-4-2.89a9,9,0,0,1-1.45-3.18c.19-1.16,1.74-2.12,4.63-2.89l2.31-.29a47.57,47.57,0,0,0,25.71-7.22q3.18-1.74,9-7.52l2-1.73,2-.87a5,5,0,0,1,1.15.87.26.26,0,0,1,.29.29l.58,2.31V82.93q6.07-9.54,18.49-13.29l11-2q16.75,0,26.59,9.82t9.82,28.61l-.29,5.77v59l.87,8.09a12.83,12.83,0,0,0,4,6.94l6.07,4.62,1.16,1.45.58,2A5.34,5.34,0,0,1,1687.51,196.2Z"/><path class="cls-2" d="M1754.14,196.49l-2.31.29h-53.75a7.94,7.94,0,0,1-3.46-.58l.86-1.73,2-1.45q6.93-2.6,10.11-7.51a12.91,12.91,0,0,0,1.73-7.23V97.09q0-6.36-5.49-10.69l-5.49-2.6-1.73-1.45-2-2.89a20,20,0,0,1,4.91-.86h4.62a45.06,45.06,0,0,0,9.83-.87,46.15,46.15,0,0,0,19.07-7.52l2.31-1.15,5.49-1.16c1.16,0,1.73,1.64,1.73,4.92l.29,106.33.29,3.76q2.31,8.39,11.56,10.11l.87,1.16.58.57ZM1735.65,50.57a20.38,20.38,0,0,1-13.58,4.62q-8.67,0-14.16-4.62-4.92-4.92-4.91-13.3T1708.49,24a21.73,21.73,0,0,1,13.58-6.07,18.29,18.29,0,0,1,13.29,5.78,17.43,17.43,0,0,1,5.78,13.58A17.52,17.52,0,0,1,1735.65,50.57Z"/><path class="cls-2" d="M1872.58,243l-4,.29h-53.75a11.12,11.12,0,0,1-3.47-.58,2.77,2.77,0,0,1-1.73-2.31c.19,0,.29-.2.29-.58a1.14,1.14,0,0,1,.29-.87l.29-.28a9.17,9.17,0,0,1,1.15-1.45l2-1.73q9.24-2.61,13-9a20.5,20.5,0,0,0,2.6-10.69V185.22a20.91,20.91,0,0,1-12.71,12.14,38.52,38.52,0,0,1-12.72,2q-22,0-33.52-16.76-12.13-16.47-12.13-39.88,0-26.58,8.09-43.92,13.86-31.48,48.83-31.49,9.83,0,15.89,3.46,1.15.3,4,3.76a8.21,8.21,0,0,1,1.44,4.33c0,1-.77,1.74-2.31,2.32a21,21,0,0,1-6.64-1.16l-5.21-1.73q-10.11,0-17.91,8.09-12.14,13.86-12.14,48,0,16.77,3.18,25.72,4.92,13.88,17,13.87,6.93,0,11-3.18,5.77-4.91,5.78-18.49V117a33.8,33.8,0,0,0-1.16-10.12,20,20,0,0,0-4.62-7.51l-4.62-3.47-3.76-2.6-1.16-2,.87-1.45,2.6-.28,3.76-.58a61.36,61.36,0,0,0,25.43-11.56q1.44-1.16,5.49-5.2l2.89-2.89,1.73-1.73,3.76-2,1.44.58q.87.87.87,8.09V215.85a33.22,33.22,0,0,0,2.31,11.85q2.31,6.06,9.25,8.66a12.26,12.26,0,0,1,2.31,5.49Z"/><path class="cls-2" d="M2000.64,196.2l-1.73.58h-39.3q-2.31,0-3.47-2.89c-1.15-1.74-1.73-4.81-1.73-9.25a32.75,32.75,0,0,1-14.74,12.43,40.33,40.33,0,0,1-13.87,2.31q-18.19,0-28.31-8.67-10.41-8.67-10.41-24.56V111.82a32.12,32.12,0,0,0-1.73-11.26,22.57,22.57,0,0,0-9.54-11l-1.15-1.74-1.45-3.18a11.6,11.6,0,0,1,3.18-1.15,13.4,13.4,0,0,1,3.47-.29,30.46,30.46,0,0,0,6.93-.58A46,46,0,0,0,1914,68.19l1.73-1.15,4-1.45c.76.77,1.15,3.09,1.15,6.94V156.9q0,6.94,2.31,11,3.46,6.66,13.58,6.65,10.41,0,14.74-6.36a20.91,20.91,0,0,0,2.89-11.27V111.25q0-9.82-5.49-16.18l-5.78-4.34q-4.62-3.75-4.62-5.78c0-1.15,2.69-1.73,8.09-1.73a60.24,60.24,0,0,0,6.93-.58l3.47-.87a14.79,14.79,0,0,1,1.74-.29Q1972,78,1979.84,69.06l1.44-1.44a5,5,0,0,1,3.47-1.74l1.45.58q1.44,2.31,1.44,8.09v88.13q0,15.31,5.49,22.54a22.29,22.29,0,0,0,5.78,4.91l4.62,2.31.87,1.45A12.68,12.68,0,0,1,2000.64,196.2Z"/><path class="cls-2" d="M2106.74,154.3q0,11.85-18.2,30.63-14.16,14.16-30.92,14.16-22.83,0-37-16.76-9.53-12.14-14.15-31.21l-2.32-17.05q0-29.46,13.87-46.81,9.26-11.83,26-17.05a49.39,49.39,0,0,1,14.16-2.59,62.29,62.29,0,0,1,8.67.57c2.89,0,4.71.58,5.49,1.74l4,2.31a28.64,28.64,0,0,0,11.85,2.6,40.09,40.09,0,0,0,9.25-1.45l4.33,5.49q4.34,7.8,4.34,19.65l-.29,5.78a34.08,34.08,0,0,1-5.49,19.07q-5.51,8.67-16.19,15.9-5.49,4-19.64,8.95l-4.92.58q-9.53,0-18.49-6.36l-7.51-6.64q1.44,11,4.33,17.05,8.67,17.32,30.63,17.33a14.68,14.68,0,0,0,6.07-1.44q13.57-4.91,25.72-18.21l2-2,3.76-2c.57.19,1,1,1.44,2.31Zm-36.12-64.15q-4.62-6.34-14.44-6.35-13.59,0-19.36,9.53-1.46,3.47-2.61,7.23a33,33,0,0,0-1.15,9.53,18.8,18.8,0,0,1,6.65-6.36,20.8,20.8,0,0,1,7.51-1.44,30.05,30.05,0,0,1,9.53,1.44c2.5,1.16,3.76,3.57,3.76,7.23a5.13,5.13,0,0,1-1.16,3.75l-2.6,1.16a10.74,10.74,0,0,1-3.46-.58l-2.89-1.73-1.45-.87-2.89-.87a2.78,2.78,0,0,0-2.6,1.74l-.58,7.51q0,4.92,3.18,7.51,2.89,2.89,8.67,2.89l5.78-1.15q13-4.62,15-22.25Q2075.54,96.81,2070.62,90.15Z"/></svg>